<?xml version="1.0" encoding="UTF-8" standalone="no"?> <svg xmlns="http://www.w3.org/2000/svg" viewBox="0 0 477.23 511.91"><g id="Layer_2" data-name="Layer 2"><g id="fiverr"><path d="M477.23,511.91H271.67V433.55h51a10.84,10.84,0,0,0,10.84-10.84V256a10.84,10.84,0,0,0-10.84-10.85H155.46A10.85,10.85,0,0,0,144.61,256V422.71a10.84,10.84,0,0,0,10.85,10.84h50.11v78.36H0V433.55H55.68a10.84,10.84,0,0,0,10.84-10.84V256a10.84,10.84,0,0,0-10.84-10.85H0V166.75H55.68A10.84,10.84,0,0,0,66.52,155.9V139.23C66.52,62.46,128.8,0,205.35,0H244.4V78.36H205.35a60.88,60.88,0,0,0-60.74,60.87V155.9a10.85,10.85,0,0,0,10.85,10.85H410.71v256a10.84,10.84,0,0,0,10.85,10.84h55.67Z"/><path d="M371.66,0a39.11,39.11,0,0,1,39,39.18A39,39,0,1,1,371.66,0Z"/></g></g></svg>
